<svg width="17" height="17" viewBox="0 0 17 17" fill="none" xmlns="http://www.w3.org/2000/svg">
<path d="M10.5936 1.52433C10.5936 1.38527 10.5418 1.2519 10.4497 1.15357C10.3575 1.05524 10.2325 1 10.1021 1C9.97178 1 9.84676 1.05524 9.75459 1.15357C9.66242 1.2519 9.61064 1.38527 9.61064 1.52433V2.57299C9.61064 2.71205 9.66242 2.84542 9.75459 2.94375C9.84676 3.04208 9.97178 3.09732 10.1021 3.09732C10.2325 3.09732 10.3575 3.04208 10.4497 2.94375C10.5418 2.84542 10.5936 2.71205 10.5936 2.57299V1.52433ZM14.2729 3.5839C14.3198 3.53553 14.3573 3.47767 14.383 3.4137C14.4088 3.34973 14.4224 3.28093 14.4229 3.21131C14.4235 3.14169 14.4111 3.07265 14.3864 3.00821C14.3616 2.94377 14.3251 2.88523 14.279 2.836C14.2329 2.78677 14.178 2.74783 14.1176 2.72147C14.0572 2.69511 13.9924 2.68184 13.9272 2.68244C13.8619 2.68305 13.7974 2.69751 13.7375 2.72499C13.6775 2.75247 13.6233 2.79242 13.5779 2.8425L12.882 3.5839C12.7897 3.68235 12.7379 3.81589 12.7379 3.95512C12.7379 4.09436 12.7897 4.2279 12.882 4.32635C12.9743 4.42481 13.0994 4.48012 13.23 4.48012C13.3605 4.48012 13.4857 4.42481 13.5779 4.32635L14.2729 3.5839ZM6.62631 2.8425C6.53362 2.74699 6.40947 2.69414 6.2806 2.69533C6.15173 2.69652 6.02846 2.75167 5.93733 2.84888C5.84621 2.9461 5.79452 3.07761 5.7934 3.21508C5.79228 3.35256 5.84182 3.48501 5.93135 3.5839L6.62631 4.32635C6.67201 4.3751 6.72626 4.41377 6.78597 4.44015C6.84567 4.46654 6.90966 4.48012 6.97429 4.48012C7.03891 4.48012 7.10291 4.46654 7.16261 4.44015C7.22232 4.41377 7.27657 4.3751 7.32226 4.32635C7.36796 4.2776 7.40421 4.21973 7.42894 4.15603C7.45367 4.09234 7.4664 4.02407 7.4664 3.95512C7.4664 3.88618 7.45367 3.81791 7.42894 3.75422C7.40421 3.69052 7.36796 3.63265 7.32226 3.5839L6.62631 2.8425ZM8.3308 6.38068C8.45297 6.11058 8.62802 5.87158 8.84413 5.67979C9.06024 5.488 9.31239 5.34789 9.58358 5.2689C9.85477 5.18991 10.1387 5.17389 10.4162 5.22191C10.6937 5.26992 10.9583 5.38087 11.1921 5.54725C11.426 5.71364 11.6237 5.9316 11.7719 6.18643C11.9201 6.44126 12.0154 6.72704 12.0513 7.02448C12.0871 7.32193 12.0628 7.62412 11.9799 7.91068C11.897 8.19724 11.7575 8.4615 11.5707 8.68563C11.7663 8.98031 11.9364 9.29595 12.0779 9.62733C12.411 9.30623 12.671 8.90822 12.8381 8.46365C13.0052 8.01908 13.0749 7.53969 13.0419 7.06202C13.0089 6.58435 12.8742 6.12102 12.6479 5.70735C12.4216 5.29368 12.1097 4.94059 11.7361 4.67501C11.3625 4.40942 10.937 4.23835 10.492 4.17484C10.047 4.11133 9.59425 4.15705 9.16833 4.30852C8.74241 4.45999 8.35453 4.71321 8.03427 5.04887C7.714 5.38453 7.46981 5.79377 7.3203 6.2454C7.66631 6.25693 8.00445 6.30308 8.3308 6.38068ZM14.5255 6.76763C14.3952 6.76763 14.2702 6.82287 14.178 6.9212C14.0858 7.01954 14.034 7.1529 14.034 7.29196C14.034 7.43102 14.0858 7.56439 14.178 7.66272C14.2702 7.76105 14.3952 7.81629 14.5255 7.81629H15.5085C15.6389 7.81629 15.7639 7.76105 15.856 7.66272C15.9482 7.56439 16 7.43102 16 7.29196C16 7.1529 15.9482 7.01954 15.856 6.9212C15.7639 6.82287 15.6389 6.76763 15.5085 6.76763H14.5255Z" fill="#F9AB37" stroke="#F9AB37" stroke-width="0.5"/>
<path d="M6.56582 13.1661C6.56582 14.126 5.39862 14.9041 3.9588 14.9041C2.51898 14.9041 1.35178 14.126 1.35178 13.1661C1.35178 12.2062 2.51898 11.4281 3.9588 11.4281C5.39862 11.4281 6.56582 12.2062 6.56582 13.1661Z" fill="#D9D9D9"/>
<path d="M14.0972 12.5868C14.0972 14.1866 12.8003 15.4835 11.2005 15.4835C9.60073 15.4835 8.30384 14.1866 8.30384 12.5868C8.30384 10.987 9.60073 9.69007 11.2005 9.69007C12.8003 9.69007 14.0972 10.987 14.0972 12.5868Z" fill="#D9D9D9"/>
<path d="M11.2005 11.1384C11.2005 13.5381 9.38488 15.4835 7.14516 15.4835C4.90544 15.4835 3.08979 13.5381 3.08979 11.1384C3.08979 8.73872 4.90544 6.79338 7.14516 6.79338C9.38488 6.79338 11.2005 8.73872 11.2005 11.1384Z" fill="#D9D9D9"/>
<path d="M11.5868 16.2559H3.0898C1.38578 16.2559 0 14.8701 0 13.1661C0.000796961 12.4811 0.228802 11.8157 0.648295 11.2742C1.06779 10.7327 1.65507 10.3456 2.31813 10.1736L2.31735 10.0763C2.31735 7.52026 4.39602 5.4416 6.95206 5.4416C7.91183 5.44001 8.84816 5.73796 9.63051 6.29391C10.4129 6.84987 11.0022 7.6361 11.3164 8.54299C13.589 8.35296 15.449 10.1752 15.449 12.3937C15.449 14.5233 13.7164 16.2559 11.5868 16.2559ZM3.01642 11.6166C2.23779 11.6212 1.5449 12.3141 1.5449 13.1661C1.5449 14.0181 2.23779 14.711 3.0898 14.711H11.5868C12.8644 14.711 13.9041 13.6713 13.9041 12.3937C13.9041 11.116 12.8644 10.0763 11.5868 10.0763C11.3991 10.0763 11.2005 10.108 10.9611 10.1767L10.1307 10.4139L9.98702 9.56185C9.86897 8.84228 9.49888 8.18814 8.94289 7.71635C8.3869 7.24456 7.68125 6.98586 6.95206 6.9865C6.49326 6.98694 6.04031 7.08944 5.62603 7.28658C5.21175 7.48372 4.84651 7.77056 4.55679 8.12631C4.26708 8.48206 4.06013 8.89781 3.95096 9.34343C3.84179 9.78905 3.83313 10.2534 3.9256 10.7028L4.11407 11.6289L3.01642 11.6166Z" fill="#959595"/>
</svg>
